<svg width="485" height="154" viewBox="0 0 485 154" fill="none" xmlns="http://www.w3.org/2000/svg">
<path d="M245.705 20.1118C245.705 20.2372 245.527 20.2686 244.712 20.2686C243.636 20.2686 243.479 20.3522 243.72 20.7806C243.855 21.0523 243.855 21.0523 242.622 20.8329C241.222 20.5925 239.676 20.8224 239.717 21.2717C239.738 21.5121 239.571 21.627 239.205 21.627C239.049 21.627 238.84 21.7106 238.735 21.8151C238.631 21.9196 238.15 22.2227 237.659 22.4839L236.771 22.9646L235.391 22.9019C233.876 22.8496 233.855 22.8601 234.179 23.4139C234.273 23.5707 234.336 23.7274 234.304 23.7483C234.284 23.7692 233.897 23.7483 233.458 23.7065C232.382 23.5811 231.849 23.7796 232.277 24.1349C232.57 24.3753 232.434 24.5111 231.598 24.8559C231.138 25.0545 230.731 25.253 230.689 25.3157C230.658 25.3784 230.752 25.5247 230.919 25.6606L231.211 25.8905L230.804 26.0054C230.584 26.0577 229.978 26.2039 229.456 26.3189C227.888 26.6533 227.606 26.8309 228.16 27.1131L228.484 27.2907L228.254 27.531C228.129 27.6564 227.794 27.9281 227.512 28.1162C227.011 28.4611 226.896 28.6596 227.105 28.785C227.167 28.8268 227.042 29.1716 226.791 29.6523C226.405 30.3838 226.311 30.4883 225.715 30.8331C225.276 31.0839 225.077 31.2615 225.098 31.3765C225.119 31.481 224.921 31.69 224.545 31.9303C224.116 32.2229 223.97 32.3796 223.97 32.5677C223.97 32.7245 223.876 32.8499 223.709 32.9335C223.562 32.9962 223.447 33.1216 223.447 33.2156C223.447 33.3201 223.259 33.456 222.956 33.5605C222.298 33.8008 221.159 34.48 221.033 34.7099C220.877 35.0025 221.253 35.1174 222.538 35.1801C223.5 35.2324 223.75 35.2742 223.928 35.4414C224.053 35.5459 224.409 35.7131 224.712 35.7862C225.025 35.8698 225.286 35.9848 225.307 36.0475C225.328 36.0997 225.778 36.2878 226.3 36.455C228.798 37.2701 229.613 37.6462 229.247 37.8448C229.038 37.9702 229.048 38.1165 229.278 38.1687C230.929 38.6076 231.18 38.7016 231.128 38.8793C231.065 39.0465 231.452 39.2346 232.894 39.7466C233.04 39.7989 233.061 39.8407 232.967 39.9556C232.904 40.0287 232.883 40.1228 232.925 40.1541C232.956 40.1959 233.834 40.2273 234.858 40.2273C236.541 40.2273 236.729 40.2482 236.697 40.4049C236.656 40.6244 237.032 40.7289 238.16 40.8125C238.86 40.8752 239.017 40.917 238.996 41.0528C238.954 41.2513 239.352 41.3454 240.334 41.3663C240.992 41.3767 241.086 41.4081 241.138 41.5857C241.212 41.8679 241.389 41.847 242.486 41.4708C243.416 41.1573 243.427 41.1573 243.615 41.3558C243.751 41.5021 244.054 41.5857 244.733 41.6693C245.235 41.732 245.778 41.7634 245.924 41.732C246.081 41.7007 246.238 41.7216 246.269 41.7738C246.311 41.8365 246.499 41.8574 246.719 41.8261C246.98 41.7843 247.074 41.7947 247.022 41.8783C246.917 42.056 247.325 42.1291 248.192 42.0873C248.955 42.056 248.997 42.0664 249.028 42.2963C249.049 42.4217 249.132 42.5262 249.206 42.5262C249.289 42.5262 249.791 42.2336 250.324 41.8679C250.857 41.5021 251.358 41.1677 251.442 41.1155C251.567 41.0424 251.578 41.1155 251.515 41.5439C251.473 41.8261 251.431 42.1605 251.431 42.2963C251.431 42.4426 251.222 42.7247 250.867 43.0696C250.501 43.4144 250.271 43.7383 250.198 43.9787C250.094 44.3758 249.738 44.752 248.735 45.567C247.92 46.2149 247.868 46.2776 247.941 46.4552C247.983 46.5493 247.847 46.8105 247.596 47.1031C247.137 47.6569 246.645 48.3675 246.645 48.4825C246.645 48.5243 246.771 48.5974 246.917 48.6288C247.178 48.7019 247.157 48.7332 246.217 49.7155C245.276 50.6978 244.754 51.4292 244.399 52.2652C244.242 52.6518 244.252 52.6623 244.451 52.6623C244.712 52.6623 244.712 52.6518 244.399 53.1952C244.252 53.446 244.137 53.7595 244.137 53.8849C244.137 54.0207 244.002 54.6268 243.824 55.2329C243.531 56.2674 243.469 56.4032 242.904 57.0407C242.068 57.9811 241.525 58.7126 241.525 58.8902C241.525 58.9947 241.65 59.0365 241.964 59.0365H242.403L241.87 59.5799C241.274 60.1964 240.794 60.8652 240.794 61.0951C240.794 61.2101 240.877 61.2309 241.107 61.1787C241.285 61.1369 241.421 61.1474 241.421 61.1996C241.421 61.2414 241.274 61.743 241.086 62.2968C240.898 62.8506 240.773 63.3418 240.815 63.3731C240.846 63.4149 241.024 63.3627 241.212 63.2686C241.525 63.1014 241.546 63.1014 241.483 63.2895C241.452 63.394 241.097 64.0941 240.689 64.8361C240.292 65.5884 239.926 66.3617 239.895 66.5602L239.822 66.9155L240.219 66.6647L240.616 66.4139L240.553 67.2499C240.511 67.6992 240.459 68.1799 240.417 68.3053C240.365 68.483 240.407 68.5352 240.595 68.5666C240.794 68.5875 240.877 68.7338 241.076 69.4025L241.316 70.2071L241.118 70.97C240.95 71.6178 240.94 71.7537 241.065 71.8477C241.191 71.9418 241.191 72.0776 241.065 72.715C240.94 73.3838 240.94 73.4779 241.076 73.5301C241.191 73.5824 241.222 73.6869 241.17 73.9899C241.128 74.2302 241.149 74.3974 241.222 74.4183C241.285 74.4392 241.253 74.6378 241.107 74.9617C240.835 75.5991 240.48 76.9471 240.48 77.3442C240.48 77.5219 240.532 77.6368 240.626 77.6368C240.773 77.6368 241.943 76.3724 242.507 75.62C242.675 75.3797 242.915 75.202 243.093 75.1707C243.249 75.1289 243.615 74.899 243.908 74.6482C244.2 74.3974 244.503 74.1884 244.597 74.1884C244.681 74.1884 245.047 73.9376 245.402 73.6346C245.757 73.342 246.301 72.9136 246.624 72.6941C246.938 72.4747 247.387 72.1403 247.628 71.9522C248.37 71.3566 248.798 71.1999 248.683 71.576C248.589 71.8791 248.788 71.8373 249.226 71.4402C250.324 70.4893 250.857 70.0817 250.794 70.2385C250.668 70.5833 250.992 70.437 251.922 69.7474C252.424 69.3712 252.842 69.0681 252.863 69.0681C252.884 69.0681 252.915 69.1517 252.936 69.2458C252.957 69.3712 253.448 68.8382 254.42 67.6156C255.486 66.2781 255.893 65.8392 255.966 65.9437C256.029 66.0587 256.28 65.8601 256.98 65.1286C257.67 64.4076 257.952 64.1777 258.098 64.2195C258.234 64.2613 258.37 64.1777 258.527 63.9687C259.279 62.9447 259.833 62.37 259.958 62.4849C260.157 62.6416 260.313 62.4222 260.857 61.1892C261.223 60.3741 261.379 60.1233 261.557 60.1024C261.818 60.0606 263.271 58.5872 263.532 58.0752C263.95 57.3019 263.762 58.1692 263.009 60.4577C262.236 62.8297 260.899 67.2813 259.551 71.9418C258.756 74.7214 255.663 83.1751 255.444 83.1751C255.371 83.1751 254.033 82.8825 252.466 82.5377C249.289 81.8166 247.91 81.6808 246.175 81.9107C242.361 82.4227 238.714 85.0247 237.011 88.4521C236.06 90.3435 235.245 93.0813 234.869 95.5578C234.618 97.2925 234.618 100.939 234.869 102.611C235.339 105.642 236.206 108.453 237.45 110.929C237.889 111.807 238.213 112.507 238.181 112.486C238.087 112.423 236.875 113.437 236.342 114.022C234.597 115.924 234.806 118.704 236.833 120.522C240.25 123.594 248.735 125.308 257.774 124.754C263.521 124.409 264.504 124.608 268.307 126.875C271.881 129.007 275.037 130 280.502 130.731C281.975 130.93 282.738 130.971 285.779 130.971C289.436 130.982 290.21 130.951 292.362 130.668C296.72 130.094 299.938 129.164 302.363 127.774C303.449 127.136 304.651 125.935 305.079 125.015C305.686 123.74 305.602 122.058 304.87 120.888C304.714 120.637 304.526 120.302 304.442 120.135C304.358 119.979 304.254 119.853 304.212 119.853C304.17 119.853 304.463 119.278 304.86 118.578C306.386 115.872 307.274 113.28 308.089 109.142C308.277 108.202 308.371 107.93 308.611 107.679C309.73 106.478 310.148 104.691 309.646 103.207C309.426 102.57 308.643 101.253 308.476 101.253C308.434 101.253 308.695 101.002 309.061 100.689C311.339 98.745 313.429 95.3802 314.38 92.1095C315.017 89.9255 315.216 88.5984 315.216 86.7802C315.216 82.3287 313.888 78.2638 311.078 74.0317C309.259 71.3043 307.88 69.8414 305.915 68.5457C304.212 67.4067 302.415 66.8215 300.356 66.6961C299.008 66.6229 297.953 66.811 296.427 67.4067C295.111 67.9187 294.797 68.1381 292.78 70.0086C291.882 70.8446 291.129 71.5238 291.108 71.5238C291.087 71.5238 290.732 71.0954 290.325 70.5833C289.426 69.4339 288.924 68.4934 288.287 66.7274C287.817 65.4108 286.239 60.1651 286.302 60.1024C286.322 60.0815 286.521 60.1651 286.761 60.28C287.273 60.5517 287.608 60.5622 287.608 60.3218C287.608 60.186 287.681 60.2173 287.921 60.4472C288.182 60.698 288.277 60.7294 288.423 60.6353C288.569 60.5517 288.663 60.5726 288.883 60.7607C289.186 61.022 290.084 61.3877 290.868 61.5653C291.317 61.6698 291.391 61.6594 291.516 61.4922C291.589 61.3877 291.704 61.3354 291.777 61.3772C291.85 61.4295 292.258 61.8997 292.686 62.4431C293.48 63.4358 293.794 63.6344 293.93 63.2164C294.024 62.9133 294.181 62.9447 295.236 63.4776C296.323 64.021 296.49 64.0523 296.49 63.6866C296.49 63.5403 296.511 63.4254 296.542 63.4254C296.574 63.4254 296.866 63.5403 297.2 63.6762C298.538 64.2404 299.416 64.3763 299.269 64.0001C299.165 63.7075 299.531 63.8433 301.37 64.7838C302.383 65.2958 303.272 65.7243 303.355 65.7243C303.428 65.7243 303.491 65.6093 303.491 65.463V65.2122L304.776 65.1809L306.051 65.1495L306.02 64.8674C305.999 64.6689 306.03 64.5957 306.124 64.6271C306.198 64.648 306.71 64.7211 307.274 64.7838C307.828 64.8361 308.35 64.9197 308.444 64.951C308.685 65.045 308.779 64.7107 308.57 64.4808C308.402 64.2927 308.402 64.2718 308.705 64.1255C309.029 63.9687 310.869 63.9583 312.802 64.115C313.439 64.1673 313.721 64.1464 313.774 64.0628C313.826 63.9792 314.097 63.9687 314.662 64.0105C315.226 64.0628 315.498 64.0419 315.55 63.9583C315.665 63.7806 316.114 63.8224 316.543 64.0419C317.494 64.533 318.455 64.8988 318.716 64.8674C318.977 64.8361 319.009 64.7943 318.998 64.439C318.977 63.9583 318.371 62.7043 317.734 61.837C317.264 61.1996 317.211 61.0638 317.4 61.0011C317.483 60.9697 317.441 60.8025 317.285 60.4995C317.096 60.1337 317.076 59.9979 317.17 59.8516C317.358 59.559 317.305 59.3082 316.908 58.3991C316.637 57.793 316.564 57.5213 316.647 57.4378C316.835 57.2497 316.783 57.0616 316.334 56.1734L315.895 55.3269L315.916 53.9685C315.937 52.7772 315.968 52.5787 316.146 52.3906L316.355 52.1607L315.978 51.1993C315.769 50.6769 315.592 50.0708 315.581 49.8618C315.56 49.4752 315.56 49.4752 316.01 49.4438C316.25 49.4229 316.449 49.3707 316.449 49.3289C316.449 49.0676 315.686 48.169 314.63 47.1867C313.962 46.5597 313.429 45.9955 313.45 45.9328C313.47 45.8701 313.627 45.7969 313.805 45.7551C314.16 45.682 314.359 45.5775 314.359 45.4625C314.359 45.4103 314.024 44.8774 313.617 44.2608L312.875 43.1427L313.261 42.8083C313.617 42.5053 313.648 42.4426 313.533 42.2336C313.397 41.9724 312.708 41.6066 311.882 41.3349C311.579 41.2304 311.328 41.1051 311.328 41.0633C311.328 41.011 311.485 40.8438 311.684 40.6975C312.499 40.0705 312.206 39.7571 310.012 38.8793C309.228 38.5658 309.155 38.5136 308.935 38.0538C308.81 37.7821 308.486 37.2074 308.235 36.7685C307.984 36.3296 307.796 35.9012 307.828 35.8176C307.87 35.7131 307.702 35.4936 307.368 35.1906C306.845 34.7204 306.845 34.7099 307.044 34.5323C307.347 34.2606 307.305 34.1352 306.793 33.6127C306.114 32.9126 305.508 32.505 304.86 32.3274C303.763 32.0244 302.969 31.7422 302.969 31.6691C302.969 31.6273 303.084 31.481 303.23 31.3451C303.376 31.2093 303.491 31.0421 303.491 30.969C303.491 30.7704 302.885 30.342 302.101 29.9867C301.464 29.7046 301.401 29.6419 301.464 29.4224C301.516 29.2134 301.474 29.1612 301.171 29.0671C300.983 29.0044 300.45 28.9313 299.991 28.8999C298.862 28.8268 298.486 28.6805 298.308 28.2625C298.162 27.9072 297.775 27.7191 296.824 27.531C296.584 27.4788 296.49 27.4161 296.532 27.3116C296.563 27.228 296.542 27.0399 296.49 26.8936C296.333 26.4861 295.602 26.2144 294.431 26.1517C293.491 26.089 293.449 26.0786 293.501 25.8696C293.533 25.7442 293.522 25.5874 293.47 25.5143C293.334 25.2948 292.153 25.1799 290.878 25.253C289.719 25.3157 289.708 25.3157 289.771 25.0858C289.823 24.8664 289.813 24.8664 287.953 24.8664C286.427 24.8664 285.925 24.9082 285.278 25.0754C283.815 25.4411 281.129 26.9563 280.366 27.8445C280.272 27.9595 279.927 28.5029 279.614 29.0462C279.3 29.5896 278.956 30.1748 278.851 30.3315L278.642 30.6346L278.412 29.9135C277.722 27.855 277.357 27.1862 275.81 25.1485C274.995 24.0722 274.274 23.1945 274.222 23.1945C274.17 23.1945 274.128 23.1004 274.128 22.9959C274.128 22.7556 272.853 21.8151 271.912 21.3553C271.453 21.1359 271.306 21.0105 271.286 20.8015C271.265 20.6343 271.129 20.4776 270.899 20.3522C270.596 20.1745 270.481 20.1641 269.958 20.2686C268.966 20.4671 268.569 20.6761 267.889 21.3449C267.336 21.8883 267.231 22.045 267.231 22.348C267.231 22.7138 267.524 23.3094 268.119 24.1349C268.506 24.6679 269.499 26.6115 269.415 26.6846C269.394 26.716 268.976 26.7787 268.506 26.8414C267.586 26.9563 265.162 27.5415 264.159 27.8863C263.814 28.0117 263.511 28.1058 263.469 28.1058C263.344 28.1058 263.166 27.5833 262.947 26.5697C262.842 26.0368 262.665 25.4725 262.56 25.3157C261.996 24.4066 260.261 22.8287 259.3 22.3271C258.15 21.7315 256.249 21.0523 256.165 21.1986C256.102 21.2822 255.862 21.2195 255.235 20.9583C254.765 20.7597 254.127 20.5194 253.835 20.4253C253.302 20.2686 253.27 20.2686 253.114 20.4671C252.946 20.6761 252.936 20.6761 252.434 20.488C252.152 20.3835 251.651 20.2372 251.316 20.1536C250.742 20.0282 250.7 20.0387 250.397 20.2581C250.104 20.4776 250.031 20.488 249.446 20.3835C248.923 20.2895 248.767 20.2999 248.505 20.4358C248.171 20.6134 247.931 20.5821 246.907 20.2686C245.872 19.9551 245.705 19.9342 245.705 20.1118ZM245.423 20.8642C245.35 20.8851 245.224 20.8851 245.162 20.8642C245.088 20.8329 245.141 20.812 245.287 20.812C245.433 20.812 245.485 20.8329 245.423 20.8642ZM245.883 20.9583C245.851 20.9896 245.757 21.0001 245.684 20.9687C245.6 20.9374 245.632 20.906 245.747 20.906C245.862 20.8956 245.924 20.9269 245.883 20.9583ZM251.943 20.9583C251.912 20.9896 251.818 21.0001 251.745 20.9687C251.661 20.9374 251.693 20.906 251.807 20.906C251.922 20.8956 251.985 20.9269 251.943 20.9583ZM249.864 21.4703C250.303 22.0764 250.23 22.0764 249.738 21.4703C249.519 21.209 249.383 21.0001 249.435 21.0001C249.477 21.0105 249.676 21.2195 249.864 21.4703ZM250.334 21.0732C250.261 21.0941 250.136 21.0941 250.073 21.0732C250 21.0419 250.052 21.021 250.198 21.021C250.345 21.021 250.397 21.0419 250.334 21.0732ZM253.49 21.3449C253.49 21.3553 253.626 21.533 253.803 21.7315L254.117 22.0973L253.751 21.7629C253.553 21.5748 253.27 21.3762 253.124 21.3135C252.873 21.209 252.873 21.209 253.176 21.2717C253.344 21.3031 253.49 21.3344 253.49 21.3449ZM241.285 21.4807C241.253 21.5121 241.159 21.5225 241.086 21.4912C241.003 21.4598 241.034 21.4285 241.149 21.4285C241.264 21.418 241.327 21.4494 241.285 21.4807ZM243.385 21.5957C243.281 21.6166 243.093 21.6166 242.967 21.5957C242.831 21.5748 242.915 21.5539 243.145 21.5539C243.375 21.5434 243.479 21.5643 243.385 21.5957ZM246.092 22.1391C246.426 22.4212 247.147 23.1109 247.69 23.6751C248.505 24.5216 248.443 24.4693 247.325 23.3826C246.572 22.6615 245.799 21.9719 245.6 21.8465C245.402 21.7315 245.287 21.627 245.36 21.627C245.433 21.627 245.757 21.8569 246.092 22.1391ZM242.204 22.7347C242.664 23.09 243.49 23.8423 244.033 24.4066L245.026 25.4307L243.824 24.2812C243.166 23.6542 242.319 22.9019 241.943 22.6302C241.212 22.0764 240.95 21.8569 241.212 21.9928C241.295 22.045 241.745 22.3689 242.204 22.7347ZM254.378 22.4107C254.514 22.557 254.598 22.672 254.566 22.672C254.545 22.672 254.409 22.557 254.274 22.4107C254.138 22.2645 254.054 22.1495 254.085 22.1495C254.106 22.1495 254.242 22.2645 254.378 22.4107ZM257.095 22.254C257.179 22.3063 257.21 22.3585 257.147 22.3585C257.095 22.3585 256.97 22.3063 256.886 22.254C256.802 22.2018 256.781 22.1495 256.834 22.1495C256.896 22.1495 257.011 22.2018 257.095 22.254ZM258.662 22.7242C258.662 22.7556 258.474 22.6824 258.244 22.5675C258.015 22.4525 257.826 22.3271 257.826 22.3063C257.826 22.2749 258.015 22.348 258.244 22.463C258.474 22.5779 258.662 22.7033 258.662 22.7242ZM254.807 22.9541C254.942 23.1213 254.932 23.1318 254.775 22.9959C254.598 22.8601 254.545 22.7765 254.629 22.7765C254.65 22.7765 254.733 22.8601 254.807 22.9541ZM257.732 22.9541C257.868 23.1213 257.858 23.1318 257.701 22.9959C257.523 22.8601 257.471 22.7765 257.555 22.7765C257.576 22.7765 257.659 22.8601 257.732 22.9541ZM260.47 23.8319C261.076 24.2708 261.682 24.9291 262.059 25.5456C262.32 25.9636 262.142 25.7755 261.599 25.044C261.118 24.4171 260.303 23.7483 259.342 23.1945C259.028 23.0168 258.767 22.8392 258.767 22.8078C258.767 22.7242 259.801 23.3512 260.47 23.8319ZM258.088 23.4035C258.192 23.5184 258.255 23.6124 258.224 23.6124C258.192 23.6124 258.088 23.5184 257.983 23.4035C257.879 23.2885 257.816 23.1945 257.847 23.1945C257.879 23.1945 257.983 23.2885 258.088 23.4035ZM255.225 23.4766C255.36 23.6438 255.35 23.6542 255.193 23.5184C255.016 23.3826 254.963 23.299 255.047 23.299C255.068 23.299 255.151 23.3826 255.225 23.4766ZM238.254 24.229C238.704 24.5634 239.163 24.95 239.278 25.0858C239.393 25.2112 239.184 25.0754 238.808 24.7619C238.432 24.4589 237.92 24.0722 237.669 23.905C237.408 23.7483 237.251 23.6124 237.314 23.6124C237.387 23.6124 237.805 23.8946 238.254 24.229ZM255.737 24.1349C255.914 24.3648 256.04 24.5529 256.019 24.5529C255.987 24.5529 255.81 24.3648 255.632 24.1349C255.454 23.905 255.329 23.7169 255.35 23.7169C255.381 23.7169 255.559 23.905 255.737 24.1349ZM258.464 23.8946C258.6 24.0618 258.589 24.0722 258.433 23.9364C258.328 23.8632 258.244 23.7796 258.244 23.7587C258.244 23.6751 258.328 23.7274 258.464 23.8946ZM258.777 24.3126C258.913 24.4798 258.903 24.4902 258.746 24.3544C258.568 24.2185 258.516 24.1349 258.6 24.1349C258.621 24.1349 258.704 24.2185 258.777 24.3126ZM259.091 24.7306C259.227 24.8977 259.216 24.9082 259.059 24.7724C258.955 24.6992 258.871 24.6156 258.871 24.5947C258.871 24.5111 258.955 24.5634 259.091 24.7306ZM256.364 24.9709C256.489 25.1381 256.562 25.2844 256.531 25.2844C256.51 25.2844 256.384 25.1381 256.259 24.9709C256.134 24.7933 256.06 24.6574 256.092 24.6574C256.113 24.6574 256.238 24.7933 256.364 24.9709ZM249.049 25.1276C249.185 25.2739 249.268 25.3889 249.237 25.3889C249.216 25.3889 249.08 25.2739 248.944 25.1276C248.808 24.9813 248.725 24.8664 248.756 24.8664C248.777 24.8664 248.913 24.9813 249.049 25.1276ZM233.907 25.4516C234.252 25.6501 234.524 25.8487 234.524 25.8696C234.524 25.9323 234.472 25.9009 233.845 25.5143C233.625 25.368 233.312 25.2217 233.165 25.1694C232.977 25.1172 232.956 25.0858 233.103 25.0858C233.207 25.0754 233.573 25.2426 233.907 25.4516ZM240.585 26.2771C241.128 26.8205 241.546 27.2698 241.525 27.2698C241.494 27.2698 241.024 26.8205 240.48 26.2771C239.937 25.7337 239.519 25.2844 239.54 25.2844C239.571 25.2844 240.041 25.7337 240.585 26.2771ZM256.886 25.7024C257.011 25.8696 257.085 26.0159 257.053 26.0159C257.032 26.0159 256.907 25.8696 256.781 25.7024C256.656 25.5247 256.583 25.3889 256.614 25.3889C256.635 25.3889 256.761 25.5247 256.886 25.7024ZM245.391 25.8591C245.527 26.0054 245.611 26.1203 245.58 26.1203C245.559 26.1203 245.423 26.0054 245.287 25.8591C245.151 25.7128 245.068 25.5979 245.099 25.5979C245.12 25.5979 245.256 25.7128 245.391 25.8591ZM249.624 25.8069C249.728 25.9218 249.791 26.0159 249.759 26.0159C249.728 26.0159 249.624 25.9218 249.519 25.8069C249.415 25.6919 249.352 25.5979 249.383 25.5979C249.415 25.5979 249.519 25.6919 249.624 25.8069ZM288.12 25.6397C288.099 25.6606 287.378 25.8069 286.511 25.9636C285.654 26.1203 284.64 26.3398 284.264 26.4547C283.261 26.7578 282.08 27.4161 281.213 28.1267C280.596 28.6387 280.533 28.6805 280.868 28.3252C281.422 27.74 282.54 26.9981 283.459 26.6115C284.41 26.2144 288.391 25.3784 288.12 25.6397ZM274.399 26.8727C274.87 27.3638 274.838 27.3429 273.95 26.6324C273.417 26.2144 272.978 25.8278 272.978 25.7755C272.978 25.6292 273.856 26.3084 274.399 26.8727ZM236.457 27.3221C236.75 27.6042 236.812 27.6773 236.572 27.4788C236.332 27.2698 235.872 26.9041 235.548 26.6533C235.214 26.4025 234.942 26.183 234.942 26.1517C234.942 26.0577 235.924 26.8205 236.457 27.3221ZM250 26.298C250.136 26.4652 250.125 26.4756 249.968 26.3398C249.864 26.2666 249.78 26.183 249.78 26.1621C249.78 26.0786 249.864 26.1308 250 26.298ZM291.725 26.2039C291.767 26.2771 288.674 26.2562 288.182 26.183C288.068 26.1621 288.809 26.1412 289.823 26.1308C290.837 26.1308 291.694 26.1621 291.725 26.2039ZM287.817 26.3711C287.733 26.4443 286.887 27.0922 285.936 27.7923C284.985 28.5029 283.773 29.4329 283.25 29.8509C282.717 30.2688 282.278 30.5928 282.278 30.5719C282.278 30.4465 287.754 26.2248 287.911 26.2248C287.942 26.2248 287.9 26.2875 287.817 26.3711ZM245.966 26.5383C246.071 26.6533 246.133 26.7473 246.102 26.7473C246.071 26.7473 245.966 26.6533 245.862 26.5383C245.757 26.4234 245.694 26.3293 245.726 26.3293C245.757 26.3293 245.862 26.4234 245.966 26.5383ZM250.313 26.716C250.449 26.8832 250.439 26.8936 250.282 26.7578C250.177 26.6846 250.094 26.601 250.094 26.5801C250.094 26.4965 250.177 26.5488 250.313 26.716ZM257.722 26.9563C257.785 27.0713 257.806 27.1653 257.785 27.1653C257.753 27.1653 257.68 27.0713 257.617 26.9563C257.555 26.8414 257.534 26.7473 257.555 26.7473C257.586 26.7473 257.659 26.8414 257.722 26.9563ZM294.003 27.0086C294.567 27.1026 295.048 27.2176 295.069 27.2594C295.1 27.3012 294.828 27.2803 294.473 27.1967C294.118 27.1235 293.533 27.0399 293.177 26.9981L292.54 26.925L291.349 27.74C288.527 29.6837 285.821 31.8258 283.846 33.6963C282.905 34.5845 282.853 34.6159 283.532 33.9157C284.692 32.714 286.364 31.2929 288.6 29.621C291.276 27.6251 292.561 26.7578 292.801 26.7996C292.906 26.8205 293.449 26.9145 294.003 27.0086ZM246.447 27.134C246.583 27.3012 246.572 27.3116 246.416 27.1758C246.238 27.0399 246.186 26.9563 246.269 26.9563C246.29 26.9563 246.374 27.0399 246.447 27.134ZM250.836 27.4474C250.972 27.6146 250.961 27.6251 250.804 27.4892C250.627 27.3534 250.574 27.2698 250.658 27.2698C250.679 27.2698 250.763 27.3534 250.836 27.4474ZM246.76 27.5519C246.896 27.7191 246.886 27.7296 246.729 27.5937C246.551 27.4579 246.499 27.3743 246.583 27.3743C246.604 27.3743 246.687 27.4579 246.76 27.5519ZM230.658 27.855C230.658 27.8759 230.522 27.8341 230.344 27.74C230.177 27.646 230.031 27.5519 230.031 27.5206C230.031 27.4997 230.177 27.5415 230.344 27.6355C230.522 27.7296 230.658 27.8236 230.658 27.855ZM238.192 28.9522C238.599 29.412 238.913 29.7777 238.881 29.7777C238.86 29.7777 238.442 29.3388 237.962 28.8059C237.481 28.2834 237.168 27.9072 237.272 27.9908C237.366 28.064 237.784 28.5029 238.192 28.9522ZM251.348 28.2103C251.41 28.3252 251.431 28.4193 251.41 28.4193C251.379 28.4193 251.306 28.3252 251.243 28.2103C251.181 28.0953 251.16 28.0013 251.181 28.0013C251.212 28.0013 251.285 28.0953 251.348 28.2103ZM296.438 28.2207L296.647 28.3043H296.438C296.323 28.3043 296.041 28.2312 295.811 28.158L295.393 28.0117L295.811 28.0744C296.041 28.1058 296.323 28.1685 296.438 28.2207ZM232.298 28.9313C232.768 29.2657 233.176 29.6001 233.207 29.6628C233.249 29.7255 232.894 29.4747 232.413 29.1194C231.932 28.7641 231.431 28.3879 231.285 28.2834C231.096 28.1476 231.086 28.1267 231.243 28.1998C231.368 28.2625 231.838 28.5865 232.298 28.9313ZM269.331 28.7641C268.558 29.9031 266.604 33.7799 266.604 34.1665C266.604 34.3233 266.029 34.2919 265.559 34.1038L265.141 33.9366V32.9021C265.141 31.6586 265.058 31.4183 264.263 30.5196C263.344 29.4642 263.438 29.3284 265.267 29.0985C265.914 29.0253 266.824 28.8372 267.283 28.6909C267.806 28.5238 268.36 28.4193 268.767 28.4193C269.122 28.4193 269.446 28.367 269.478 28.3043C269.52 28.2416 269.572 28.2207 269.593 28.2416C269.624 28.273 269.499 28.5029 269.331 28.7641ZM296.793 28.8581C296.615 28.9731 295.999 29.412 295.435 29.8404C294.86 30.2688 294.4 30.6032 294.4 30.5719C294.4 30.4569 296.95 28.5447 297.044 28.5969C297.096 28.6282 296.981 28.7432 296.793 28.8581ZM247.701 28.8059C247.837 28.9731 247.826 28.9835 247.669 28.8477C247.565 28.7745 247.481 28.6909 247.481 28.67C247.481 28.5865 247.565 28.6387 247.701 28.8059ZM297.441 28.9104C297.577 29.0776 297.566 29.088 297.409 28.9522C297.232 28.8163 297.18 28.7327 297.263 28.7327C297.284 28.7327 297.368 28.8163 297.441 28.9104ZM270.982 30.1852C270.993 30.4987 270.826 31.4496 270.627 32.3274C270.032 34.8249 270.084 34.689 269.749 34.689C269.582 34.689 269.081 34.7622 268.642 34.8562C267.346 35.1279 267.336 34.9607 268.558 33.0589C268.966 32.4319 269.446 31.5646 269.634 31.1361C270.021 30.227 270.314 29.7255 270.617 29.3806L270.836 29.1298L270.899 29.3806C270.941 29.5165 270.972 29.8717 270.982 30.1852ZM274.096 30.0285C274.462 30.4569 275.131 31.063 275.612 31.4078C276.489 32.0348 276.772 32.4005 276.907 33.0902C276.97 33.4142 276.949 33.4351 275.925 34.1038C275.35 34.4905 274.734 34.9816 274.546 35.201C274.232 35.6086 273.814 36.5281 273.449 37.6149L273.26 38.1792L273.02 37.6358C272.884 37.3328 272.675 36.9461 272.56 36.7789C272.351 36.4968 272.351 36.455 272.508 36.0893C272.748 35.5041 273.041 34.2815 273.292 32.8081C273.501 31.575 273.522 30.1121 273.334 29.4329C273.24 29.0985 273.438 29.2657 274.096 30.0285ZM299.186 29.4329C299.426 29.4642 299.656 29.5269 299.677 29.5792C299.75 29.6837 299.113 29.5792 298.475 29.3911C298.099 29.2866 298.078 29.2657 298.371 29.3075C298.569 29.3388 298.935 29.3911 299.186 29.4329ZM235.214 31.5228C235.527 31.8885 235.778 32.1811 235.757 32.1811C235.736 32.1811 235.182 31.6377 234.524 30.9585C233.74 30.1643 233.552 29.9449 233.98 30.3106C234.336 30.6241 234.9 31.1675 235.214 31.5228ZM239.174 30.0912C239.278 30.2061 239.341 30.3002 239.31 30.3002C239.278 30.3002 239.174 30.2061 239.069 30.0912C238.965 29.9762 238.902 29.8822 238.934 29.8822C238.965 29.8822 239.069 29.9762 239.174 30.0912ZM228.139 30.2061C228.641 30.3838 228.474 30.4151 227.941 30.2479C227.679 30.1748 227.544 30.1016 227.638 30.1016C227.732 30.0912 227.951 30.1434 228.139 30.2061ZM300.095 30.3002C300.231 30.3629 300.252 30.3942 300.147 30.3942C300.064 30.3942 299.917 30.3524 299.834 30.3002C299.646 30.1748 299.813 30.1748 300.095 30.3002ZM244.148 30.4778C244.284 30.645 244.273 30.6555 244.117 30.5196C243.939 30.3838 243.887 30.3002 243.97 30.3002C243.991 30.3002 244.075 30.3838 244.148 30.4778ZM228.881 30.5092C228.965 30.5614 228.996 30.6137 228.933 30.6137C228.881 30.6137 228.756 30.5614 228.672 30.5092C228.589 30.4569 228.568 30.4047 228.62 30.4047C228.683 30.4047 228.798 30.4569 228.881 30.5092ZM239.592 30.6137C239.696 30.7286 239.759 30.8227 239.728 30.8227C239.696 30.8227 239.592 30.7286 239.487 30.6137C239.383 30.4987 239.32 30.4047 239.352 30.4047C239.383 30.4047 239.487 30.4987 239.592 30.6137ZM301.527 30.6241C301.736 30.6764 301.934 30.76 301.965 30.8122C302.018 30.8854 301.422 30.7495 300.503 30.4674C300.179 30.3733 301.109 30.5092 301.527 30.6241ZM230.031 31.0317C230.49 31.2615 230.867 31.4705 230.867 31.5019C230.867 31.5541 229.205 30.7495 229.101 30.6555C228.965 30.5301 229.299 30.6659 230.031 31.0317ZM282.174 30.645C282.174 30.6659 282.049 30.7913 281.892 30.9376L281.599 31.1884L281.85 30.8958C282.09 30.6346 282.174 30.5614 282.174 30.645ZM294.295 30.6555C294.295 30.6764 293.742 31.1361 293.073 31.6691C290.816 33.456 287.67 36.1102 286.573 37.1551C285.967 37.7194 285.528 38.1165 285.581 38.0329C285.873 37.5417 288.998 34.8144 292.237 32.2229C294.254 30.6137 294.295 30.5823 294.295 30.6555ZM244.461 30.8958C244.597 31.063 244.587 31.0735 244.43 30.9376C244.326 30.8645 244.242 30.7809 244.242 30.76C244.242 30.6764 244.326 30.7286 244.461 30.8958ZM281.547 31.1675C281.547 31.1884 281.39 31.3347 281.213 31.5123L280.868 31.8154L281.171 31.4705C281.463 31.157 281.547 31.0839 281.547 31.1675ZM264.504 31.7004C264.483 31.7213 264.368 31.6168 264.263 31.4705L264.065 31.1884L264.316 31.4183C264.441 31.5437 264.535 31.6691 264.504 31.7004ZM232.246 32.4632C232.622 32.7767 232.998 33.1007 233.082 33.2052C233.155 33.2992 232.894 33.1007 232.497 32.7663C232.1 32.4319 231.588 32.0348 231.368 31.899C231.149 31.7527 230.971 31.6064 230.971 31.5855C230.971 31.4914 231.514 31.8676 232.246 32.4632ZM240.689 32.2125C240.689 32.3379 240.689 32.3274 240.438 31.9199L240.261 31.6064L240.47 31.8572C240.595 31.993 240.689 32.1498 240.689 32.2125ZM301.192 31.9094C301.297 32.0453 301.265 32.0453 301.004 31.9512C300.722 31.8363 300.555 31.899 299.092 32.6304C295.476 34.4173 292.686 36.3923 289.541 39.3809L288.287 40.5721L289.645 39.2241C292.383 36.4863 295.549 34.2501 299.196 32.4528C300.628 31.7422 300.973 31.6482 301.192 31.9094ZM303.449 32.9021C303.69 33.0066 303.909 33.1529 303.951 33.2156C304.003 33.2992 302.916 32.8708 302.77 32.7454C302.634 32.6304 303.084 32.7349 303.449 32.9021ZM225.339 32.9857C225.475 33.1529 225.464 33.1634 225.307 33.0275C225.13 32.8917 225.077 32.8081 225.161 32.8081C225.182 32.8081 225.266 32.8917 225.339 32.9857ZM226.478 34.0307C226.478 34.1143 226.384 34.0307 225.955 33.5605L225.485 33.0693L225.987 33.5396C226.258 33.7903 226.478 34.0098 226.478 34.0307ZM228.63 33.3933C228.818 33.5396 228.818 33.5396 228.568 33.4246C228.244 33.2783 228.191 33.2261 228.317 33.2261C228.38 33.2261 228.515 33.2992 228.63 33.3933ZM229.142 33.7276C229.111 33.759 229.027 33.7276 228.954 33.6545C228.86 33.55 228.871 33.5396 229.017 33.6023C229.121 33.6336 229.174 33.6963 229.142 33.7276ZM305.247 33.8008C305.497 33.9053 305.675 33.9993 305.654 34.0307C305.623 34.0516 305.351 33.9471 305.048 33.8008C304.432 33.5187 304.526 33.5082 305.247 33.8008ZM305.968 35.0129C306.333 35.2533 306.616 35.4727 306.595 35.4936C306.563 35.5145 306.271 35.3369 305.926 35.107L305.309 34.6786L304.379 35.0025C303.125 35.4309 300.774 36.6013 299.416 37.4581C297.692 38.5449 297.754 38.5031 298.11 38.2001C298.58 37.7925 301.109 36.2982 302.321 35.7235C303.167 35.316 305.027 34.595 305.257 34.5845C305.288 34.5845 305.602 34.7831 305.968 35.0129ZM275.8 35.1906C275.653 35.2846 275.35 35.5354 275.131 35.734C274.755 36.0684 274.734 36.0788 274.912 35.8071C275.006 35.6504 275.288 35.3996 275.528 35.2637C276.019 34.9711 276.197 34.9189 275.8 35.1906ZM269.812 35.2742C269.781 35.3055 269.687 35.316 269.614 35.2846C269.53 35.2533 269.561 35.2219 269.676 35.2219C269.791 35.2115 269.854 35.2428 269.812 35.2742ZM307.128 36.549C307.378 36.758 307.629 37.0193 307.692 37.1342C307.755 37.2596 307.504 37.0715 307.138 36.7371C306.772 36.3923 306.448 36.0893 306.417 36.0579C306.229 35.8907 306.762 36.2564 307.128 36.549ZM297.702 38.5449C297.671 38.5867 297.284 38.8793 296.835 39.1823C295.852 39.8511 295.936 39.7153 296.96 38.9838C297.723 38.43 297.786 38.3986 297.702 38.5449ZM261.724 39.0465C261.651 39.0674 261.505 39.0674 261.411 39.0465C261.306 39.0151 261.369 38.9942 261.536 38.9942C261.714 38.9942 261.787 39.0151 261.724 39.0465ZM284.901 39.2555C285.037 39.4331 285.037 39.4331 284.839 39.2868C284.724 39.2032 284.609 39.1196 284.588 39.1092C284.567 39.0883 284.588 39.0778 284.651 39.0778C284.713 39.0778 284.828 39.1614 284.901 39.2555ZM308.611 39.3391C309.04 39.5585 309.009 39.6317 308.57 39.4331C308.235 39.2659 308.183 39.2764 307.504 39.4958C304.651 40.4363 301.485 42.2336 297.922 44.9191C296.887 45.7029 295.947 46.403 295.821 46.4866C295.236 46.8941 296.03 46.2253 297.378 45.1908C300.837 42.5262 303.909 40.7184 306.866 39.6003C308.068 39.1405 308.183 39.1196 308.611 39.3391ZM310.492 40.384C310.492 40.4154 310.168 40.2691 309.761 40.0705C309.364 39.872 309.029 39.6735 309.029 39.6526C309.029 39.6212 309.364 39.7675 309.761 39.966C310.168 40.1646 310.492 40.3631 310.492 40.384ZM272.665 40.3945C272.665 40.4781 272.623 40.5199 272.56 40.4885C272.508 40.4572 272.456 40.384 272.456 40.3213C272.456 40.2691 272.508 40.2273 272.56 40.2273C272.623 40.2273 272.665 40.3004 272.665 40.3945ZM295.288 40.3213C294.881 40.6766 292.404 42.6202 292.467 42.5262C292.55 42.3904 295.246 40.2273 295.33 40.2273C295.361 40.2273 295.34 40.2691 295.288 40.3213ZM287.085 41.1677C287.085 41.22 287.064 41.2722 287.043 41.2722C287.012 41.2722 286.96 41.22 286.929 41.1677C286.897 41.1051 286.918 41.0633 286.97 41.0633C287.033 41.0633 287.085 41.1051 287.085 41.1677ZM311.287 41.9619C311.673 42.3172 311.6 42.2754 310.994 41.7843C310.545 41.429 310.179 41.1155 310.179 41.0946C310.179 41.011 310.785 41.4812 311.287 41.9619ZM287.754 41.6693C287.785 41.7216 287.744 41.7634 287.66 41.7634C287.576 41.7634 287.535 41.7216 287.566 41.6693C287.597 41.6275 287.639 41.5857 287.66 41.5857C287.681 41.5857 287.723 41.6275 287.754 41.6693ZM288.141 41.9724C288.277 42.1396 288.266 42.15 288.109 42.0142C288.005 41.941 287.921 41.8574 287.921 41.8365C287.921 41.7529 288.005 41.8052 288.141 41.9724ZM252.184 42.453C252.184 42.4739 252.058 42.5993 251.902 42.7456L251.609 42.9964L251.86 42.7038C252.1 42.4426 252.184 42.3695 252.184 42.453ZM259.634 42.7038C259.498 42.7247 259.289 42.7247 259.164 42.7038C259.028 42.6829 259.133 42.662 259.394 42.662C259.655 42.662 259.76 42.6829 259.634 42.7038ZM292.31 42.662C292.31 42.6829 292.132 42.8606 291.923 43.0591L291.526 43.4144L291.882 43.0173C292.226 42.662 292.31 42.5784 292.31 42.662ZM257.858 42.8083C257.785 42.8292 257.638 42.8292 257.544 42.8083C257.44 42.777 257.503 42.7561 257.67 42.7561C257.847 42.7561 257.92 42.777 257.858 42.8083ZM272.383 43.3308C272.414 43.4353 272.466 43.707 272.508 43.9369C272.592 44.4176 272.884 45.0341 273.135 45.2431C273.271 45.358 273.355 45.358 273.511 45.264C273.616 45.1908 273.731 45.1386 273.752 45.1386C273.773 45.1386 273.814 45.6715 273.835 46.3089C273.867 47.3957 273.898 47.542 274.211 48.2003C274.41 48.5974 274.629 48.9422 274.723 48.9736C274.807 49.0049 274.974 48.9318 275.1 48.8064L275.319 48.587L275.455 49.2348C275.601 49.9558 276.071 50.8127 276.677 51.4292C277.012 51.7741 277.127 51.8368 277.367 51.7845C277.618 51.7427 277.702 51.7845 277.952 52.1189C278.109 52.3279 278.433 52.7145 278.673 52.9758C278.914 53.237 279.332 53.8326 279.614 54.3029C280.356 55.5568 280.544 55.7763 280.742 55.5986C280.889 55.4837 280.983 55.5777 281.474 56.3405C282.111 57.3124 282.519 57.7408 282.696 57.6258C282.77 57.584 282.916 57.3333 283.031 57.072L283.25 56.5913L283.407 56.8944C284.431 58.8589 285.999 64.3345 287.138 69.9041C287.556 72.0045 287.879 73.7496 287.838 73.7913C287.796 73.8331 286.688 74.2407 285.361 74.7109C282.362 75.7872 281.902 75.9858 280.868 76.7695C279.05 78.1279 277.743 80.0193 277.012 82.3182C276.427 84.1678 276.416 86.1532 276.96 88.6611C277.075 89.2045 277.137 89.7061 277.106 89.7583C276.939 90.0405 276.698 89.7792 276.176 88.7343C275.507 87.3967 274.891 86.5398 273.825 85.4426C272.038 83.5931 270.147 82.5585 267.879 82.1824C267.555 82.1301 267.367 82.0256 267.2 81.7957C266.991 81.5136 266.28 81.0329 266.437 81.2733C266.468 81.3359 266.437 81.3986 266.374 81.43C266.27 81.4613 266.27 81.5031 266.385 81.639C266.562 81.8584 266.51 81.8793 265.35 82.0047C264.859 82.057 263.48 82.2973 262.278 82.5377C261.087 82.778 260.084 82.9661 260.063 82.9347C260.042 82.9138 259.948 82.2033 259.843 81.3464C259.686 79.8939 259.686 79.7267 259.854 78.5877C260.219 76.1216 260.387 75.4737 264.462 61.1265C266.092 55.3583 266.05 55.4941 266.28 55.5568C266.521 55.6195 266.521 55.6091 266.855 53.9267C267.001 53.2161 267.137 52.6205 267.158 52.5891C267.189 52.5682 267.325 52.61 267.482 52.6727C267.869 52.8504 267.994 52.6936 268.412 51.5337C268.621 50.9695 268.851 50.5097 268.976 50.4156C269.112 50.3216 269.311 49.8827 269.54 49.193C269.729 48.5974 270.011 47.8555 270.167 47.5315C270.324 47.2181 270.491 46.821 270.533 46.6642C270.575 46.497 270.711 46.3403 270.847 46.288C271.275 46.1209 271.933 44.543 271.933 43.6548C271.933 43.2263 271.965 43.1532 272.132 43.1532C272.247 43.1532 272.362 43.2368 272.383 43.3308ZM252.372 43.3308C252.267 43.3517 252.1 43.3517 252.006 43.3308C251.902 43.2995 251.985 43.2786 252.184 43.2786C252.382 43.2786 252.466 43.2995 252.372 43.3308ZM251.766 43.404C251.766 43.4249 251.651 43.4667 251.504 43.4876C251.369 43.5189 251.275 43.498 251.306 43.4562C251.358 43.3622 251.766 43.3204 251.766 43.404ZM290.126 43.6443C290.262 43.8115 290.252 43.8219 290.095 43.6861C289.99 43.613 289.907 43.5294 289.907 43.5085C289.907 43.4249 289.99 43.4771 290.126 43.6443ZM312.07 43.9055L312.196 44.1459L311.966 43.9369C311.736 43.7383 311.715 43.7383 310.827 43.916C307.796 44.5325 304.16 46.403 300.826 49.0572C300.2 49.5588 299.792 49.8409 299.938 49.6842C300.325 49.2662 302.77 47.4375 303.846 46.7687C305.821 45.5252 308.131 44.5012 310.158 43.9369C311.37 43.6025 311.903 43.6025 312.07 43.9055ZM291.202 44.5012C291.244 44.5534 291.15 44.543 291.004 44.4803C290.858 44.4071 290.743 44.3131 290.743 44.2713C290.743 44.1772 291.119 44.3653 291.202 44.5012ZM250.303 44.7624C250.303 44.7833 250.219 44.8669 250.125 44.94C249.958 45.0759 249.947 45.0654 250.083 44.8983C250.219 44.7311 250.303 44.6788 250.303 44.7624ZM257.022 45.7342C256.949 45.7551 256.823 45.7551 256.761 45.7342C256.687 45.7029 256.74 45.682 256.886 45.682C257.032 45.682 257.085 45.7029 257.022 45.7342ZM255.977 45.8387C255.904 45.8596 255.778 45.8596 255.716 45.8387C255.642 45.8074 255.695 45.7865 255.841 45.7865C255.987 45.7865 256.04 45.8074 255.977 45.8387ZM255.183 45.9328C255.151 45.9641 255.057 45.9746 254.984 45.9432C254.901 45.9119 254.932 45.8805 255.047 45.8805C255.162 45.8701 255.225 45.9014 255.183 45.9328ZM253.406 46.2462C253.375 46.2776 253.281 46.288 253.208 46.2567C253.124 46.2253 253.155 46.194 253.27 46.194C253.385 46.1835 253.448 46.2149 253.406 46.2462ZM249.153 46.3194C249.153 46.3403 248.976 46.5179 248.767 46.7165L248.37 47.0718L248.725 46.6747C249.07 46.3194 249.153 46.2358 249.153 46.3194ZM294.337 47.1136C294.316 47.1449 294.139 47.0091 293.951 46.821L293.616 46.4657L294.003 46.7687C294.212 46.9255 294.369 47.0822 294.337 47.1136ZM251.316 46.7687C251.285 46.8001 251.191 46.8105 251.118 46.7792C251.034 46.7478 251.066 46.7165 251.181 46.7165C251.295 46.706 251.358 46.7374 251.316 46.7687ZM250.773 46.915C250.658 46.9673 250.491 47.0091 250.407 47.0091C250.313 47.0091 250.324 46.9673 250.459 46.915C250.574 46.8628 250.742 46.821 250.825 46.821C250.919 46.821 250.909 46.8628 250.773 46.915ZM249.247 47.3748C249.226 47.3957 249.091 47.4688 248.944 47.5315C248.694 47.6465 248.694 47.6465 248.882 47.5002C249.049 47.3644 249.394 47.2494 249.247 47.3748ZM295.664 48.0331C295.8 48.2003 295.79 48.2108 295.633 48.0749C295.529 48.0018 295.445 47.9182 295.445 47.8973C295.445 47.8137 295.529 47.8659 295.664 48.0331ZM314.515 48.2735C314.547 48.3257 314.536 48.378 314.474 48.378C314.421 48.378 314.338 48.3257 314.306 48.2735C314.275 48.2108 314.286 48.169 314.348 48.169C314.4 48.169 314.484 48.2108 314.515 48.2735ZM313.627 49.0676C312.676 49.2139 311.882 49.4229 310.66 49.8409C309.562 50.2066 309.332 50.1962 310.357 49.82C311.746 49.308 314.077 48.7541 314.306 48.8795C314.359 48.9213 314.056 48.9945 313.627 49.0676ZM247.199 49.5797C246.99 49.8409 246.792 50.0499 246.771 50.0499C246.708 50.0499 246.928 49.7678 247.262 49.3916C247.669 48.9422 247.638 49.0676 247.199 49.5797ZM257.231 49.2871C257.158 49.308 257.011 49.308 256.917 49.2871C256.813 49.2557 256.876 49.2348 257.043 49.2348C257.22 49.2348 257.294 49.2557 257.231 49.2871ZM255.872 49.3916C255.799 49.4125 255.674 49.4125 255.611 49.3916C255.538 49.3602 255.59 49.3393 255.737 49.3393C255.883 49.3393 255.935 49.3602 255.872 49.3916ZM298.371 50.2275C298.371 50.2589 298.141 50.0812 297.848 49.8409C297.566 49.6006 297.326 49.3811 297.326 49.3498C297.326 49.3184 297.566 49.4961 297.848 49.7364C298.141 49.9767 298.371 50.1962 298.371 50.2275ZM252.675 49.7991C252.643 49.8305 252.549 49.8409 252.476 49.8096C252.393 49.7782 252.424 49.7469 252.539 49.7469C252.654 49.7364 252.717 49.7678 252.675 49.7991ZM309.217 50.3111C309.197 50.3425 308.685 50.6037 308.078 50.8963C306.772 51.5337 305.268 52.4115 304.588 52.9235C304.317 53.1325 304.076 53.2788 304.045 53.2475C303.972 53.1848 306.083 51.795 306.887 51.377C307.619 51.0008 309.165 50.2589 309.228 50.2589C309.249 50.2589 309.249 50.2798 309.217 50.3111ZM249.749 50.4261C249.718 50.4574 249.624 50.4679 249.55 50.4365C249.467 50.4052 249.498 50.3738 249.613 50.3738C249.728 50.3634 249.791 50.3947 249.749 50.4261ZM249.331 50.5306C249.3 50.5619 249.206 50.5724 249.132 50.541C249.049 50.5097 249.08 50.4783 249.195 50.4783C249.31 50.4679 249.373 50.4992 249.331 50.5306ZM300.043 51.3665C300.565 51.7427 300.983 52.0771 300.983 52.1085C300.983 52.1398 300.826 52.0458 300.649 51.9099C300.461 51.7636 299.98 51.4292 299.593 51.168C299.196 50.8963 298.935 50.6769 298.998 50.6769C299.061 50.6769 299.531 50.9904 300.043 51.3665ZM246.123 50.9277C246.123 50.9486 246.039 51.0322 245.945 51.1053C245.778 51.2411 245.768 51.2307 245.903 51.0635C246.039 50.8963 246.123 50.8441 246.123 50.9277ZM247.68 51.0322C247.596 51.1158 246.29 51.6173 246.259 51.5755C246.238 51.5546 246.51 51.4188 246.875 51.2725C247.481 51.0217 247.784 50.9277 247.68 51.0322ZM301.307 52.3175C301.443 52.4846 301.433 52.4951 301.276 52.3593C301.171 52.2861 301.088 52.2025 301.088 52.1816C301.088 52.098 301.171 52.1503 301.307 52.3175ZM301.725 52.6309C301.861 52.7981 301.851 52.8086 301.694 52.6727C301.589 52.5996 301.506 52.516 301.506 52.4951C301.506 52.4115 301.589 52.4637 301.725 52.6309ZM255.141 53.5714C255.068 53.5923 254.921 53.5923 254.827 53.5714C254.723 53.5401 254.786 53.5192 254.953 53.5192C255.13 53.5192 255.204 53.5401 255.141 53.5714ZM253.991 53.6759C253.918 53.6968 253.793 53.6968 253.73 53.6759C253.657 53.6446 253.709 53.6237 253.856 53.6237C254.002 53.6237 254.054 53.6446 253.991 53.6759ZM253.155 53.7804C253.082 53.8013 252.957 53.8013 252.894 53.7804C252.821 53.749 252.873 53.7281 253.02 53.7281C253.166 53.7281 253.218 53.749 253.155 53.7804ZM252.466 53.8744C252.434 53.9058 252.34 53.9162 252.267 53.8849C252.184 53.8535 252.215 53.8222 252.33 53.8222C252.445 53.8117 252.508 53.8431 252.466 53.8744ZM304.149 54.4283C304.223 54.5119 304.087 54.4596 303.867 54.3029C303.637 54.1566 303.408 54.0625 303.355 54.0939C303.293 54.1252 303.282 54.1043 303.324 54.0312C303.408 53.9058 303.92 54.1461 304.149 54.4283ZM314.85 54.1148C314.913 54.1461 314.181 54.1775 313.23 54.1879C311.109 54.1984 310.095 54.3969 308.34 55.1493C307.681 55.4314 307.18 55.63 307.201 55.5882C307.316 55.4105 309.312 54.6164 310.262 54.376C311.767 53.9894 314.338 53.8431 314.85 54.1148ZM251.212 54.0834C251.181 54.1148 251.086 54.1252 251.013 54.0939C250.93 54.0625 250.961 54.0312 251.076 54.0312C251.191 54.0207 251.254 54.0521 251.212 54.0834ZM250.689 54.1879C250.658 54.2193 250.564 54.2297 250.491 54.1984C250.407 54.167 250.439 54.1357 250.554 54.1357C250.668 54.1252 250.731 54.1566 250.689 54.1879ZM304.547 54.7209C304.682 54.8881 304.672 54.8985 304.515 54.7627C304.411 54.6895 304.327 54.6059 304.327 54.585C304.327 54.5014 304.411 54.5537 304.547 54.7209ZM304.965 55.0343C305.1 55.2015 305.09 55.212 304.933 55.0761C304.829 55.003 304.745 54.9194 304.745 54.8985C304.745 54.8149 304.829 54.8672 304.965 55.0343ZM305.383 55.3478C305.518 55.515 305.508 55.5255 305.351 55.3896C305.247 55.3165 305.163 55.2329 305.163 55.212C305.163 55.1284 305.247 55.1806 305.383 55.3478ZM305.8 55.6613C305.936 55.8285 305.926 55.839 305.769 55.7031C305.665 55.63 305.581 55.5464 305.581 55.5255C305.581 55.4419 305.665 55.4941 305.8 55.6613ZM245.078 55.9017C244.994 55.9539 244.879 56.0062 244.817 56.0062C244.764 56.0062 244.785 55.9539 244.869 55.9017C244.953 55.8494 245.078 55.7972 245.13 55.7972C245.193 55.7972 245.162 55.8494 245.078 55.9017ZM307.755 57.187C308.11 57.4691 308.402 57.7199 308.402 57.7408C308.402 57.793 306.751 56.5704 306.574 56.3928C306.375 56.1838 307.096 56.6749 307.755 57.187ZM254.305 56.9989C254.274 57.0929 254.221 57.1452 254.2 57.1138C254.169 57.0825 254.18 57.0198 254.221 56.9571C254.315 56.7899 254.378 56.8212 254.305 56.9989ZM252.32 57.8557C252.246 57.8766 252.1 57.8766 252.006 57.8557C251.902 57.8244 251.964 57.8035 252.131 57.8035C252.309 57.8035 252.382 57.8244 252.32 57.8557ZM251.212 57.9498C251.181 57.9811 251.086 57.9916 251.013 57.9602C250.93 57.9289 250.961 57.8975 251.076 57.8975C251.191 57.8871 251.254 57.9184 251.212 57.9498ZM315.142 57.9393C315.09 57.9602 314.181 58.1065 313.126 58.2528C312.07 58.4096 311.14 58.5559 311.057 58.5872C310.973 58.6186 310.91 58.5977 310.91 58.535C310.91 58.4827 311.746 58.3155 312.77 58.1692C314.453 57.9393 315.414 57.8453 315.142 57.9393ZM250.48 58.0543C250.449 58.0856 250.355 58.0961 250.282 58.0647C250.198 58.0334 250.23 58.002 250.345 58.002C250.459 57.9916 250.522 58.0229 250.48 58.0543ZM249.853 58.1588C249.822 58.1901 249.728 58.2006 249.655 58.1692C249.571 58.1379 249.603 58.1065 249.718 58.1065C249.833 58.0961 249.895 58.1274 249.853 58.1588ZM249.394 58.2737C249.32 58.2946 249.195 58.2946 249.132 58.2737C249.059 58.2424 249.111 58.2215 249.258 58.2215C249.404 58.2215 249.456 58.2424 249.394 58.2737ZM309.249 58.3782C309.385 58.5454 309.374 58.5559 309.217 58.42C309.113 58.3469 309.029 58.2633 309.029 58.2424C309.029 58.1588 309.113 58.211 309.249 58.3782ZM311.37 59.8098C311.903 60.1233 312.405 60.4577 312.488 60.5622C312.572 60.6771 312.478 60.6353 312.269 60.4786C312.07 60.3323 311.548 60.0083 311.119 59.768C310.294 59.3082 310.2 59.2455 310.325 59.2455C310.377 59.2455 310.837 59.4963 311.37 59.8098ZM315.247 59.7576C315.101 59.8725 313.941 60.395 313.941 60.3323C313.941 60.28 315.195 59.6635 315.299 59.6635C315.32 59.6635 315.299 59.7053 315.247 59.7576ZM242.936 60.5831C242.873 60.6249 242.695 60.7712 242.539 60.9175C242.372 61.0638 242.267 61.1056 242.309 61.0115C242.34 60.9279 242.497 60.7816 242.654 60.6771C242.946 60.4995 243.103 60.4368 242.936 60.5831ZM248.599 62.5476C248.568 62.5789 248.474 62.5894 248.401 62.558C248.317 62.5267 248.349 62.4953 248.464 62.4953C248.579 62.4849 248.641 62.5162 248.599 62.5476ZM315.414 62.6625C315.55 62.8297 315.539 62.8402 315.383 62.7043C315.278 62.6312 315.195 62.5476 315.195 62.5267C315.195 62.4431 315.278 62.4953 315.414 62.6625ZM248.181 62.6521C248.15 62.6834 248.056 62.6939 247.983 62.6625C247.899 62.6312 247.931 62.5998 248.046 62.5998C248.161 62.5894 248.223 62.6207 248.181 62.6521ZM247.763 62.7566C247.732 62.7879 247.638 62.7984 247.565 62.767C247.481 62.7357 247.513 62.7043 247.628 62.7043C247.743 62.6939 247.805 62.7252 247.763 62.7566ZM246.907 63.0074C246.792 63.0596 246.624 63.1014 246.541 63.1014C246.447 63.1014 246.457 63.0596 246.593 63.0074C246.708 62.9551 246.875 62.9133 246.959 62.9133C247.053 62.9133 247.042 62.9551 246.907 63.0074ZM245.078 63.6344C244.994 63.6866 244.879 63.7388 244.817 63.7388C244.764 63.7388 244.785 63.6866 244.869 63.6344C244.953 63.5821 245.078 63.5299 245.13 63.5299C245.193 63.5299 245.162 63.5821 245.078 63.6344ZM244.346 63.9478C244.263 64.0001 244.148 64.0523 244.085 64.0523C244.033 64.0523 244.054 64.0001 244.137 63.9478C244.221 63.8956 244.346 63.8433 244.399 63.8433C244.461 63.8433 244.43 63.8956 244.346 63.9478ZM243.291 64.4076C243.187 64.5017 242.361 64.8883 242.361 64.8361C242.361 64.7734 243.113 64.3763 243.239 64.3658C243.291 64.3658 243.312 64.3867 243.291 64.4076ZM242.048 65.045C242.048 65.0659 241.912 65.16 241.734 65.254C241.337 65.4526 241.316 65.369 241.713 65.16C242.037 64.9824 242.048 64.9719 242.048 65.045ZM248.181 65.4735C248.15 65.5048 248.056 65.5153 247.983 65.4839C247.899 65.4526 247.931 65.4212 248.046 65.4212C248.161 65.4108 248.223 65.4421 248.181 65.4735ZM245.078 66.717C245.078 66.7379 244.942 66.8319 244.764 66.926C244.367 67.1245 244.346 67.0409 244.744 66.8319C245.068 66.6543 245.078 66.6438 245.078 66.717ZM244.033 67.3335C244.033 67.3544 243.772 67.5425 243.458 67.7515C243.145 67.9605 242.884 68.1068 242.884 68.0754C242.884 68.0336 243.939 67.2917 244.002 67.2917C244.023 67.2917 244.033 67.3126 244.033 67.3335ZM242.779 68.1695C242.779 68.1904 242.695 68.274 242.601 68.3471C242.434 68.483 242.424 68.4725 242.56 68.3053C242.695 68.1381 242.779 68.0859 242.779 68.1695ZM242.361 68.4725C242.361 68.4934 242.236 68.6188 242.079 68.7651L241.786 69.0159L242.037 68.7233C242.277 68.4621 242.361 68.3889 242.361 68.4725ZM245.182 69.6429C245.182 69.6638 245.078 69.7369 244.953 69.7996C244.723 69.9146 244.723 69.9041 244.911 69.7578C245.13 69.5802 245.182 69.5593 245.182 69.6429Z" fill="#9F2339"/>
<path d="M74.5455 124H63.2727V40.9091H43.4545C38.4242 40.9091 34.3788 41.6818 31.3182 43.2273C28.2576 44.7424 26.0303 46.8939 24.6364 49.6818C23.2424 52.4697 22.5455 55.7273 22.5455 59.4545C22.5455 63.1818 23.2273 66.3939 24.5909 69.0909C25.9848 71.7576 28.197 73.8182 31.2273 75.2727C34.2879 76.7273 38.303 77.4545 43.2727 77.4545H68.3636V87.6364H42.9091C35.697 87.6364 29.7727 86.4394 25.1364 84.0455C20.5 81.6212 17.0606 78.2879 14.8182 74.0455C12.5758 69.803 11.4545 64.9394 11.4545 59.4545C11.4545 53.9697 12.5758 49.0758 14.8182 44.7727C17.0606 40.4697 20.5152 37.0909 25.1818 34.6364C29.8485 32.1515 35.8182 30.9091 43.0909 30.9091H74.5455V124ZM30.7273 82.1818H43.4545L20.9091 124H7.81818L30.7273 82.1818ZM138.784 54.1818V64.1818H106.42V124H95.6932V54.1818H138.784ZM179.182 125.455C172.879 125.455 167.348 123.955 162.591 120.955C157.864 117.955 154.167 113.758 151.5 108.364C148.864 102.97 147.545 96.6667 147.545 89.4545C147.545 82.1818 148.864 75.8333 151.5 70.4091C154.167 64.9848 157.864 60.7727 162.591 57.7727C167.348 54.7727 172.879 53.2727 179.182 53.2727C185.485 53.2727 191 54.7727 195.727 57.7727C200.485 60.7727 204.182 64.9848 206.818 70.4091C209.485 75.8333 210.818 82.1818 210.818 89.4545C210.818 96.6667 209.485 102.97 206.818 108.364C204.182 113.758 200.485 117.955 195.727 120.955C191 123.955 185.485 125.455 179.182 125.455ZM179.182 115.818C183.97 115.818 187.909 114.591 191 112.136C194.091 109.682 196.379 106.455 197.864 102.455C199.348 98.4545 200.091 94.1212 200.091 89.4545C200.091 84.7879 199.348 80.4394 197.864 76.4091C196.379 72.3788 194.091 69.1212 191 66.6364C187.909 64.1515 183.97 62.9091 179.182 62.9091C174.394 62.9091 170.455 64.1515 167.364 66.6364C164.273 69.1212 161.985 72.3788 160.5 76.4091C159.015 80.4394 158.273 84.7879 158.273 89.4545C158.273 94.1212 159.015 98.4545 160.5 102.455C161.985 106.455 164.273 109.682 167.364 112.136C170.455 114.591 174.394 115.818 179.182 115.818ZM335.193 124V54.1818H345.92V84.5455H353.011L378.102 54.1818H391.92L363.739 87.8182L392.284 124H378.466L355.557 94.5455H345.92V124H335.193ZM414.67 108.182L448.307 54.1818H460.67V124H449.943V70L416.489 124H403.943V54.1818H414.67V108.182Z" fill="black"/>
</svg>
